<svg width="28" height="14" viewBox="0 0 28 14" fill="none" xmlns="http://www.w3.org/2000/svg">
    <path d="M0.0996094 14V0.582031H13.6836V3.44336H3.82031V5.66016H13.1758V8.52148H3.82031V11.1387H13.8203V14H0.0996094Z" fill="white"/>
    <path d="M0.0996094 14V0.582031H13.6836V3.44336H3.82031V5.66016H13.1758V8.52148H3.82031V11.1387H13.8203V14H0.0996094Z" fill="#1877F2"/>
    <path d="M20.9766 7.11523L27.3438 14H22.998L18.7988 9.47852L14.6191 14H10.2832L16.6406 7.11523L10.5957 0.582031H14.9414L18.7988 4.78125L22.6758 0.582031H27.0215L20.9766 7.11523Z" fill="white"/>
    <path d="M20.9766 7.11523L27.3438 14H22.998L18.7988 9.47852L14.6191 14H10.2832L16.6406 7.11523L10.5957 0.582031H14.9414L18.7988 4.78125L22.6758 0.582031H27.0215L20.9766 7.11523Z" fill="#1877F2"/>
</svg>
