<svg width="13" height="15" viewBox="0 0 13 15" fill="none" xmlns="http://www.w3.org/2000/svg">
    <path d="M7.09375 14.0312L7.09375 0.96875C7.09375 0.640831 6.82792 0.375 6.5 0.375C6.17208 0.375 5.90625 0.640831 5.90625 0.96875L5.90625 14.0312C5.90625 14.3592 6.17208 14.625 6.5 14.625C6.82792 14.625 7.09375 14.3592 7.09375 14.0312Z" fill="white"/>
    <path d="M6.08016 0.548904L0.736404 5.89266C0.625056 6.00401 0.562501 6.15503 0.562501 6.3125C0.5625 6.46997 0.625055 6.62099 0.736404 6.73234C0.847754 6.84369 0.998777 6.90625 1.15625 6.90625C1.31372 6.90625 1.46475 6.84369 1.5761 6.73234L6.5 1.80844L11.4239 6.73234C11.5353 6.84369 11.6863 6.90625 11.8438 6.90625C12.0012 6.90625 12.1522 6.84369 12.2636 6.73234C12.3749 6.62099 12.4375 6.46997 12.4375 6.3125C12.4375 6.15503 12.3749 6.00401 12.2636 5.89266L6.91984 0.548904C6.68797 0.317031 6.31203 0.317031 6.08016 0.548904Z" fill="white"/>
</svg>
