<svg width="15" height="15" viewBox="0 0 15 15" fill="none" xmlns="http://www.w3.org/2000/svg">
    <path fill-rule="evenodd" clip-rule="evenodd" d="M3.64062 0.375C3.64062 0.375 4.99329 0.375 5.94977 1.33148C5.94977 1.33148 6.90625 2.28796 6.90625 3.64062C6.90625 3.64062 6.90625 4.99329 5.94977 5.94977C5.94977 5.94977 4.99329 6.90625 3.64062 6.90625C3.64062 6.90625 2.28796 6.90625 1.33148 5.94977C1.33148 5.94977 0.375 4.99329 0.375 3.64062C0.375 3.64062 0.375 2.28796 1.33148 1.33148C1.33148 1.33148 2.28796 0.375 3.64062 0.375ZM3.64062 1.5625C3.64062 1.5625 2.77984 1.5625 2.17117 2.17117C2.17117 2.17117 1.5625 2.77984 1.5625 3.64062C1.5625 3.64062 1.5625 4.50141 2.17117 5.11008C2.17117 5.11008 2.77984 5.71875 3.64062 5.71875C3.64062 5.71875 4.50141 5.71875 5.11008 5.11008C5.11008 5.11008 5.71875 4.50141 5.71875 3.64062C5.71875 3.64062 5.71875 2.77984 5.11008 2.17117C5.11008 2.17117 4.50141 1.5625 3.64062 1.5625Z" fill="white"/>
    <path fill-rule="evenodd" clip-rule="evenodd" d="M11.3594 0.375C11.3594 0.375 12.712 0.375 13.6685 1.33148C13.6685 1.33148 14.625 2.28796 14.625 3.64062C14.625 3.64062 14.625 4.99329 13.6685 5.94977C13.6685 5.94977 12.712 6.90625 11.3594 6.90625C11.3594 6.90625 10.0067 6.90625 9.05023 5.94977C9.05023 5.94977 8.09375 4.99329 8.09375 3.64062C8.09375 3.64062 8.09375 2.28796 9.05023 1.33148C9.05023 1.33148 10.0067 0.375 11.3594 0.375ZM11.3594 1.5625C11.3594 1.5625 10.4986 1.5625 9.88992 2.17117C9.88992 2.17117 9.28125 2.77984 9.28125 3.64062C9.28125 3.64062 9.28125 4.50141 9.88992 5.11008C9.88992 5.11008 10.4986 5.71875 11.3594 5.71875C11.3594 5.71875 12.2202 5.71875 12.8288 5.11008C12.8288 5.11008 13.4375 4.50141 13.4375 3.64062C13.4375 3.64062 13.4375 2.77984 12.8288 2.17117C12.8288 2.17117 12.2202 1.5625 11.3594 1.5625Z" fill="white"/>
    <path fill-rule="evenodd" clip-rule="evenodd" d="M3.64062 8.09375C3.64062 8.09375 4.99329 8.09375 5.94977 9.05023C5.94977 9.05023 6.90625 10.0067 6.90625 11.3594C6.90625 11.3594 6.90625 12.712 5.94977 13.6685C5.94977 13.6685 4.99329 14.625 3.64062 14.625C3.64062 14.625 2.28796 14.625 1.33148 13.6685C1.33148 13.6685 0.375 12.712 0.375 11.3594C0.375 11.3594 0.375 10.0067 1.33148 9.05023C1.33148 9.05023 2.28796 8.09375 3.64062 8.09375ZM3.64062 9.28125C3.64062 9.28125 2.77984 9.28125 2.17117 9.88992C2.17117 9.88992 1.5625 10.4986 1.5625 11.3594C1.5625 11.3594 1.5625 12.2202 2.17117 12.8288C2.17117 12.8288 2.77984 13.4375 3.64062 13.4375C3.64062 13.4375 4.50141 13.4375 5.11008 12.8288C5.11008 12.8288 5.71875 12.2202 5.71875 11.3594C5.71875 11.3594 5.71875 10.4986 5.11008 9.88992C5.11008 9.88992 4.50141 9.28125 3.64062 9.28125Z" fill="white"/>
    <path d="M10.7656 9.28125V13.4375C10.7656 13.7654 11.0315 14.0312 11.3594 14.0312C11.6873 14.0312 11.9531 13.7654 11.9531 13.4375V9.28125C11.9531 8.95333 11.6873 8.6875 11.3594 8.6875C11.0315 8.6875 10.7656 8.95333 10.7656 9.28125Z" fill="white"/>
    <path d="M13.4375 10.7656H9.28125C8.95333 10.7656 8.6875 11.0315 8.6875 11.3594C8.6875 11.6873 8.95333 11.9531 9.28125 11.9531H13.4375C13.7654 11.9531 14.0312 11.6873 14.0312 11.3594C14.0312 11.0315 13.7654 10.7656 13.4375 10.7656Z" fill="white"/>
</svg>
