<svg width="15" height="15" viewBox="0 0 15 15" fill="none" xmlns="http://www.w3.org/2000/svg">
    <path fill-rule="evenodd" clip-rule="evenodd" d="M1.5625 14.6249H4.87911L4.88008 14.6249C4.88008 14.6249 5.11401 14.6254 5.33047 14.5365C5.33047 14.5365 5.5479 14.4472 5.71451 14.2814L14.6218 5.37408C14.6218 5.37408 14.7886 5.20988 14.8807 4.98982C14.8807 4.98982 14.9728 4.76975 14.9728 4.53118C14.9728 4.53118 14.9728 4.29261 14.8807 4.07255C14.8807 4.07255 14.7886 3.85249 14.6186 3.68509L11.3116 0.378137C11.3116 0.378137 11.1474 0.211381 10.9274 0.119241C10.9274 0.119241 10.7073 0.0270996 10.4688 0.0270996C10.4688 0.0270996 10.2302 0.0270996 10.0101 0.11924C10.0101 0.11924 9.79006 0.211381 9.62266 0.381364L0.71961 9.28439C0.71961 9.28439 0.552781 9.45204 0.463481 9.66947C0.463481 9.66947 0.374182 9.88689 0.375006 10.1219L0.375002 13.4374C0.375002 13.4374 0.375002 13.9293 0.722813 14.2771C0.722813 14.2771 1.07062 14.6249 1.5625 14.6249ZM13.7821 4.53439L4.87907 13.4374H1.5625L1.5625 10.1209L10.4688 1.2146L10.472 1.21783L13.7853 4.53119L13.7821 4.53439Z" fill="white"/>
    <path d="M11.8298 7.32579C11.9412 7.43714 12.0925 7.5 12.25 7.5C12.4075 7.5 12.5585 7.43744 12.6698 7.32609C12.7812 7.21475 12.8437 7.06372 12.8437 6.90625C12.8437 6.74878 12.7812 6.59775 12.6698 6.48641L8.51366 2.33023C8.40224 2.21881 8.25122 2.15625 8.09375 2.15625C7.93628 2.15625 7.78525 2.21881 7.6739 2.33016C7.56255 2.4415 7.5 2.59253 7.5 2.75C7.5 2.90747 7.56255 3.05849 7.6739 3.16984L11.8298 7.32579Z" fill="white"/>
</svg>
