<svg width="13" height="15" viewBox="0 0 13 15" fill="none" xmlns="http://www.w3.org/2000/svg">
    <path d="M5.90625 0.96875V14.0312C5.90625 14.3592 6.17208 14.625 6.5 14.625C6.82792 14.625 7.09375 14.3592 7.09375 14.0312V0.96875C7.09375 0.640831 6.82792 0.375 6.5 0.375C6.17208 0.375 5.90625 0.640831 5.90625 0.96875Z" fill="white"/>
    <path d="M6.91984 14.4511L12.2636 9.10734C12.3749 8.99599 12.4375 8.84497 12.4375 8.6875C12.4375 8.53003 12.3749 8.37901 12.2636 8.26766C12.1522 8.15631 12.0012 8.09375 11.8438 8.09375C11.6863 8.09375 11.5353 8.15631 11.4239 8.26766L6.5 13.1916L1.57609 8.26766C1.46474 8.15631 1.31372 8.09375 1.15625 8.09375C0.998778 8.09375 0.847755 8.15631 0.736405 8.26766C0.625056 8.37901 0.5625 8.53003 0.5625 8.6875C0.5625 8.84497 0.625056 8.99599 0.736405 9.10734L6.08016 14.4511C6.31203 14.683 6.68797 14.683 6.91984 14.4511Z" fill="white"/>
</svg>
