<svg width="13" height="13" viewBox="0 0 13 13" fill="none" xmlns="http://www.w3.org/2000/svg">
    <path d="M11.4239 0.736405L0.736405 11.4239C0.625056 11.5353 0.5625 11.6863 0.5625 11.8438C0.5625 12.0012 0.625056 12.1522 0.736405 12.2636C0.847755 12.3749 0.998778 12.4375 1.15625 12.4375C1.31372 12.4375 1.46474 12.3749 1.57609 12.2636L12.2636 1.57609C12.3749 1.46474 12.4375 1.31372 12.4375 1.15625C12.4375 0.998778 12.3749 0.847755 12.2636 0.736406C12.1522 0.625056 12.0012 0.5625 11.8438 0.5625C11.6863 0.5625 11.5353 0.625056 11.4239 0.736405Z" fill="white"/>
    <path d="M1.57609 0.736405C1.46474 0.625056 1.31372 0.5625 1.15625 0.5625C0.998778 0.5625 0.847755 0.625056 0.736405 0.736405C0.625056 0.847755 0.5625 0.998778 0.5625 1.15625C0.5625 1.31372 0.625056 1.46474 0.736405 1.57609L11.4239 12.2636C11.5353 12.3749 11.6863 12.4375 11.8438 12.4375C12.0012 12.4375 12.1522 12.3749 12.2636 12.2636C12.3749 12.1522 12.4375 12.0012 12.4375 11.8438C12.4375 11.6863 12.3749 11.5353 12.2636 11.4239L1.57609 0.736405Z" fill="white"/>
</svg>
