<svg width="13" height="15" viewBox="0 0 13 15" fill="white" xmlns="http://www.w3.org/2000/svg">
    <path d="M5.93444 1.34375V14.4062C5.93444 14.7342 6.20111 15 6.53007 15C6.85903 15 7.1257 14.7342 7.1257 14.4062V1.34375C7.1257 1.01583 6.85903 0.75 6.53007 0.75C6.20111 0.75 5.93444 1.01583 5.93444 1.34375Z" />
    <path d="M6.95125 14.8261L12.312 9.48234C12.4237 9.37099 12.4864 9.21997 12.4864 9.0625C12.4864 8.90503 12.4237 8.75401 12.312 8.64266C12.2002 8.53131 12.0487 8.46875 11.8908 8.46875C11.7328 8.46875 11.5813 8.53131 11.4696 8.64266L6.53007 13.5666L1.59054 8.64266C1.47884 8.53131 1.32734 8.46875 1.16936 8.46875C1.01139 8.46875 0.859891 8.53131 0.748188 8.64266C0.636485 8.75401 0.57373 8.90503 0.57373 9.0625C0.57373 9.21997 0.636485 9.37099 0.748188 9.48234L6.10889 14.8261C6.3415 15.058 6.71864 15.058 6.95125 14.8261Z" />
</svg>
